# xmcd
#
# Track frame offsets:
#	150
#	18907
#	33627
#	44550
#	56167
#	69095
#	82262
#	101330
#	116162
#	127012
#	141555
#
# Disc length: 2034 seconds
#
# Revision: 0
# Processed by: cddbd v1.5.2PL0 Copyright (c) Steve Scherf et al.
# Submitted via: EasyCDDAExtractor 16.0.8.2
#
DISCID=a307f00b
DTITLE=Συλλογικός δίσκος - Ανθολογία ελλ. τραγ. Ε-Τα αλλιώτικα
DYEAR=1900
DGENRE=Ποικίλη
TTITLE0=Ζακυνθηνάκης Ανδρέας - Επαναστατώ [Α. Κεσίδης-Κ. Κρητικάκης]
TTITLE1=Ζαγοραίος Σπύρος - Πού 'σουν μάγκα το χειμώνα [διασκ. Σ. Ζαγοραίος]
TTITLE2=Ζαγοραίος Σπύρος - Ε ντε λα μαγκέν ντε Βοτανίκ [διασκ. Σ. Ζαγοραίος]
TTITLE3=Ζαγοραίος Σπύρος - Ο διαβολάκος [Π. Μιχαλόπουλος-Λ. Σαρπέλης]
TTITLE4=Ζαγοραίος Σπύρος - Πήρε φωτιά μιά καρδιά[Ε.Ατραΐδης-Γ.Βασι/λος-Γ.Γαβαλ
TTITLE4=άς]
TTITLE5=Χρυσάφη Άννα - Απόψε είναι βαριά [Γιώργος Μητσάκης]
TTITLE6=Κερμανίδης Πόλυς - Τα πλοία πεθαίνουν στα λιμάνια [Γ. Μητσάκης]
TTITLE7=Πάνου Πόλυ - Κρυφό μαράζι [Στ. Πελαγίδης]
TTITLE8=Ζαγοραίος Σπύρος - Αντιλαλούν δυό σήμαντρα [Μ. Βαμβακάρης]
TTITLE9=Ζαγοραίος Σπύρος - Γαρυφαλιές [Σ. Ζαγοραίος]
TTITLE10=Ζαγοραίος Σπύρος - Πού πας μεμέτη μου [Χ. Μαρίνος]
EXTD=
EXTT0=
EXTT1=
EXTT2=
EXTT3=
EXTT4=
EXTT5=
EXTT6=
EXTT7=
EXTT8=
EXTT9=
EXTT10=
PLAYORDER=
